<?xml version="1.0" encoding="utf-8"?>
<!-- Generator: Adobe Illustrator 27.2.0, SVG Export Plug-In . SVG Version: 6.00 Build 0)  -->
<svg version="1.1" id="레이어_1" xmlns="http://www.w3.org/2000/svg" xmlns:xlink="http://www.w3.org/1999/xlink" x="0px"
	 y="0px" viewBox="0 0 500 500" style="enable-background:new 0 0 500 500;" xml:space="preserve">
<style type="text/css">
	.st0{fill:#452E27;}
	.st1{fill:none;stroke:#FFFFFF;stroke-width:33.1012;stroke-miterlimit:10;}
	.st2{fill:none;stroke:#FFFFFF;stroke-width:19.3339;stroke-linecap:round;stroke-miterlimit:10;}
	.st3{fill:none;stroke:#FFFFFF;stroke-width:17.1373;stroke-linecap:round;stroke-miterlimit:10;}
	.st4{fill:#FFFFFF;}
</style>
<circle class="st0" cx="249.7" cy="250.1" r="246.9"/>
<path class="st1" d="M312.3,229.6c23.3,12.9,34.2,39.2,24.4,58.6s-36.6,24.7-59.9,11.7"/>
<path class="st2" d="M269.7,97c2.1,17.4-17.3,23.8-23.7,36.7c-9.9,19.8,3.2,22.6-7.3,37.4"/>
<path class="st3" d="M305.8,117.7c11.1,16-10.8,16.5-15.8,31.3c-5.1,15,14.1,17-18.2,36.3"/>
<path class="st3" d="M200.9,107.9c9.7,4.2-7.4,16.7-6.4,32.2s19.3,19.3,13.2,26.4"/>
<g>
	<path class="st4" d="M184,426.4l8.2-34.3c3,0.9,7.9,2.1,11.8,2.1c17.3,0,27-10.9,31.9-25.8l3-10c0,0-11-15.7-30.7-27.1
		c-67-38.8-53.2-57.3-50.6-89.2l10-37.5c3.1-7.9,15.3-13.1,19.2-13.1h5.6l-7.8,31.9c-1.1,4.4-1.6,9-1.6,13.6v26.4
		c0,14.8,9.9,26.1,21.9,34.8c5.6,4.1,27.6,20,28.8,19.8c0,0,12.7,11.2,16.8,6.6c6.5-7.3,15.1-22.5,22.2-54.3l17.2-58.1
		c3.7-12.4,15-20.8,27.9-20.8h21.1l-60.4,175.2c-14.9,40.1-33.1,63.1-71,63.1C197.3,429.8,190.7,428.5,184,426.4z"/>
</g>
</svg>
