<?xml version="1.0" encoding="utf-8"?>
<!-- Generator: Adobe Illustrator 27.2.0, SVG Export Plug-In . SVG Version: 6.00 Build 0)  -->
<svg version="1.1" id="레이어_1" xmlns="http://www.w3.org/2000/svg" xmlns:xlink="http://www.w3.org/1999/xlink" x="0px"
	 y="0px" viewBox="0 0 190 109" style="enable-background:new 0 0 190 109;" xml:space="preserve">
<style type="text/css">
	.st0{fill:#FFFFFF;}
	.st1{fill:none;stroke:#FFFFFF;stroke-width:5.1362;stroke-miterlimit:10;}
	.st2{fill:none;stroke:#FFFFFF;stroke-width:2.6592;stroke-linecap:round;stroke-miterlimit:10;}
	.st3{fill:none;stroke:#FFFFFF;stroke-width:2.9512;stroke-linecap:round;stroke-miterlimit:10;}
	.st4{fill:none;stroke:#FFFFFF;stroke-width:2.6159;stroke-linecap:round;stroke-miterlimit:10;}
</style>
<path class="st0" d="M16.6,17.8c0-2.4,2-4.4,4.4-4.4h17.3c14.7,0,26,5.2,26,20.9c0,15.1-11.4,21.9-25.6,21.9h-4.4
	c-2.4,0-4.4,2-4.4,4.4v14.7c0,2.4-2,4.4-4.4,4.4h-4.4c-2.4,0-4.4-2-4.4-4.4V17.8z M37.8,45.7c9.1,0,13.5-3.8,13.5-11.5
	c0-7.7-4.8-10.3-14-10.3h-3.1c-2.4,0-4.4,2-4.4,4.4v12.9c0,2.4,2,4.4,4.4,4.4H37.8z"/>
<path class="st0" d="M47.7,76.5c0-5.7,4.6-8.6,15.2-9.8c-0.1-2.6-1.3-4.6-4.5-4.6c-2.4,0-4.8,1.1-7.3,2.5l-2.5-4.6
	c3.1-1.9,6.9-3.5,11-3.5c6.7,0,10.1,4,10.1,11.6V80c0,2-1.6,3.6-3.6,3.6h-2l-0.5-2.8h-0.2c-2.3,2-4.9,3.5-8,3.5
	C50.8,84.3,47.7,81,47.7,76.5z M62.9,76.3V71c-6.5,0.8-8.6,2.6-8.6,4.9c0,2.1,1.5,3,3.5,3C59.8,78.9,61.2,78,62.9,76.3z"/>
<path class="st0" d="M76.9,60.4c0-1.7,1.4-3.1,3.1-3.1h2.6l0.5,3.5h0.1c2.3-2.3,5-4.1,8.6-4.1c5.7,0,8.1,4,8.1,10.6v16.4H93V68.1
	c0-4.1-1.1-5.5-3.7-5.5c-2.2,0-3.5,1-5.5,3v18.1h-6.9V60.4z"/>
<path class="st0" d="M108.1,74.4V62.7h-3.7v-5.1l4.1-0.3l0.7-6.2c0.1-0.5,0.5-1,1.1-1h3.7c0.6,0,1.1,0.5,1.1,1.1v5
	c0,0.6,0.5,1.1,1.1,1.1h5.4v5.5h-5.4c-0.6,0-1.1,0.5-1.1,1.1v10.6c0,3,1.2,4.4,3.6,4.4c0.8,0,1.9-0.3,2.6-0.6l1.1,5
	c-1.4,0.5-3.3,1-5.6,1C110.5,84.3,108.1,80.3,108.1,74.4z"/>
<path class="st0" d="M126.9,58.6c0-0.7,0.6-1.3,1.3-1.3h4.3l0.5,4.7h0.1c1.9-3.4,4.8-5.3,7.5-5.3c1.5,0,2.3,0.2,3.1,0.6l-1.2,6
	c-0.9-0.3-1.7-0.4-2.8-0.4c-2.1,0-4.6,1.4-6,5.2v15.7h-6.9V58.6z"/>
<path class="st1" d="M168.7,62.1c3.6,2,5.3,6.1,3.8,9.1s-5.7,3.8-9.3,1.8"/>
<path class="st2" d="M163.3,51.8"/>
<path class="st2" d="M166.6,43.7"/>
<g>
	<path class="st0" d="M148.8,92.6l1.3-5.3c0.5,0.1,1.2,0.3,1.8,0.3c2.7,0,4.2-1.7,4.9-4l0.5-1.6c0,0-1.7-2.4-4.8-4.2
		c-10.4-6-8.3-8.9-7.9-13.8l1.5-5.8c0.5-1.2,2.4-2,3-2h0.9l-1.2,5c-0.2,0.7-0.3,1.4-0.3,2.1v4.1c0,2.3,1.5,4.1,3.4,5.4
		c0.9,0.6,4.3,3.1,4.5,3.1c0,0,2,1.7,2.6,1c1-1.1,2.3-3.5,3.5-8.4l2.7-9c0.6-1.9,2.3-3.2,4.3-3.2h3.3l-9.4,27.2
		c-2.3,6.2-5.1,9.8-11,9.8C150.8,93.1,149.8,93,148.8,92.6z"/>
</g>
<path class="st3" d="M163,42.5c0.3,2.7-2.6,3.6-3.6,5.6c-1.5,3,0.5,3.4-1.1,5.7"/>
<path class="st4" d="M168.5,45.7c1.7,2.4-1.6,2.5-2.4,4.8c-0.8,2.3,2.1,2.6-2.8,5.5"/>
<path class="st4" d="M152.5,44.2c1.5,0.6-1.1,2.5-1,4.9s3,3,2,4"/>
</svg>
